<svg width="39" height="39" viewBox="0 0 39 39" fill="none" xmlns="http://www.w3.org/2000/svg">
<path d="M35.6979 14.1599L33.0146 11.4766L34.4521 9.99114L28.3187 3.8578L26.8333 5.2953L24.1021 2.56405L25.5396 1.07863C26.2743 0.343913 27.1847 -0.0154625 28.2708 0.000509752C29.3569 0.016482 30.2674 0.391829 31.0021 1.12655L37.1833 7.3078C37.9181 8.04252 38.2854 8.94495 38.2854 10.0151C38.2854 11.0852 37.9181 11.9877 37.1833 12.7224L35.6979 14.1599ZM12.6979 37.2078C11.9632 37.9425 11.0608 38.3099 9.99062 38.3099C8.92049 38.3099 8.01806 37.9425 7.28333 37.2078L1.10208 31.0266C0.367361 30.2918 0 29.3894 0 28.3193C0 27.2491 0.367361 26.3467 1.10208 25.612L2.53958 24.1745L5.27083 26.9057L3.78542 28.3432L9.96667 34.5245L11.4042 33.0391L14.1354 35.7703L12.6979 37.2078ZM31.7208 21.1078L34.4521 18.3766L19.9333 3.8578L17.2021 6.58905L31.7208 21.1078ZM18.3042 34.5245L21.0354 31.7453L6.56458 17.2745L3.78542 20.0057L18.3042 34.5245ZM18.0167 23.312L23.2875 18.0891L20.2208 15.0224L14.9979 20.2932L18.0167 23.312ZM21.0354 37.2078C20.3007 37.9425 19.3903 38.3099 18.3042 38.3099C17.2181 38.3099 16.3076 37.9425 15.5729 37.2078L1.10208 22.737C0.367361 22.0022 0 21.0918 0 20.0057C0 18.9196 0.367361 18.0092 1.10208 17.2745L3.83333 14.5432C4.56806 13.8085 5.47049 13.4411 6.54062 13.4411C7.61076 13.4411 8.51319 13.8085 9.24792 14.5432L12.2667 17.562L17.5375 12.2911L14.5187 9.3203C13.784 8.58558 13.4167 7.67516 13.4167 6.58905C13.4167 5.50294 13.784 4.59252 14.5187 3.8578L17.25 1.12655C17.9847 0.391829 18.8872 0.0244681 19.9573 0.0244681C21.0274 0.0244681 21.9299 0.391829 22.6646 1.12655L37.1833 15.6453C37.9181 16.38 38.2854 17.2825 38.2854 18.3526C38.2854 19.4227 37.9181 20.3252 37.1833 21.0599L34.4521 23.7911C33.7174 24.5259 32.8069 24.8932 31.7208 24.8932C30.6347 24.8932 29.7243 24.5259 28.9896 23.7911L26.0187 20.7724L20.7479 26.0432L23.7667 29.062C24.5014 29.7967 24.8687 30.6991 24.8687 31.7693C24.8687 32.8394 24.5014 33.7418 23.7667 34.4766L21.0354 37.2078Z" fill="white" fill-opacity="0.5"/>
</svg>
