<svg width="31" height="31" viewBox="0 0 31 31" fill="none" xmlns="http://www.w3.org/2000/svg">
<path d="M9.91875 13.0813C8.41736 11.5799 7.66667 9.775 7.66667 7.66667C7.66667 5.55833 8.41736 3.75347 9.91875 2.25208C11.4201 0.750694 13.225 0 15.3333 0C17.4417 0 19.2465 0.750694 20.7479 2.25208C22.2493 3.75347 23 5.55833 23 7.66667C23 9.775 22.2493 11.5799 20.7479 13.0813C19.2465 14.5826 17.4417 15.3333 15.3333 15.3333C13.225 15.3333 11.4201 14.5826 9.91875 13.0813ZM0 30.6667V25.3C0 24.2139 0.279514 23.2156 0.838542 22.3052C1.39757 21.3948 2.14028 20.7 3.06667 20.2208C5.04722 19.2306 7.05972 18.4878 9.10417 17.9927C11.1486 17.4976 13.225 17.25 15.3333 17.25C17.4417 17.25 19.5181 17.4976 21.5625 17.9927C23.6069 18.4878 25.6194 19.2306 27.6 20.2208C28.5264 20.7 29.2691 21.3948 29.8281 22.3052C30.3872 23.2156 30.6667 24.2139 30.6667 25.3V30.6667H0ZM3.83333 26.8333H26.8333V25.3C26.8333 24.9486 26.7455 24.6292 26.5698 24.3417C26.3941 24.0542 26.1625 23.8306 25.875 23.6708C24.15 22.8083 22.409 22.1615 20.6521 21.7302C18.8951 21.299 17.1222 21.0833 15.3333 21.0833C13.5444 21.0833 11.7715 21.299 10.0146 21.7302C8.25764 22.1615 6.51667 22.8083 4.79167 23.6708C4.50417 23.8306 4.27257 24.0542 4.09687 24.3417C3.92118 24.6292 3.83333 24.9486 3.83333 25.3V26.8333ZM18.0406 10.374C18.7913 9.62326 19.1667 8.72083 19.1667 7.66667C19.1667 6.6125 18.7913 5.71007 18.0406 4.95937C17.2899 4.20868 16.3875 3.83333 15.3333 3.83333C14.2792 3.83333 13.3767 4.20868 12.626 4.95937C11.8753 5.71007 11.5 6.6125 11.5 7.66667C11.5 8.72083 11.8753 9.62326 12.626 10.374C13.3767 11.1247 14.2792 11.5 15.3333 11.5C16.3875 11.5 17.2899 11.1247 18.0406 10.374Z" fill="white" fill-opacity="0.5"/>
</svg>
